# xmcd
#
# Track frame offsets: 
#        150
#        21588
#        42846
#        54751
#        66237
#        80603
#        98269
#        115189
#        130063
#        144754
#        161967
#        180516
#
# Disc length: 2635 seconds
#
# Revision: 0
# Processed by: cddbd v1.5.2PL0 Copyright (c) Steve Scherf et al.
# Submitted via: ExactAudioCopy v1.0b3
#
DISCID=950a490c
DTITLE=Johnny Childs Blues Band - Truth
DYEAR=2003
DGENRE=Blues
TTITLE0=Don't Leave Me
TTITLE1=Find My Baby
TTITLE2=Brave Your Evil
TTITLE3=Dog and Pony
TTITLE4=Should o' Known
TTITLE5=This Love
TTITLE6=Help Me Make You Mine
TTITLE7=Thumbs Boogie
TTITLE8=She Moves Me
TTITLE9=Come Back Easy
TTITLE10=Blue over You
TTITLE11=Chromatic Boogie
EXTD=
EXTT0=
EXTT1=
EXTT2=
EXTT3=
EXTT4=
EXTT5=
EXTT6=
EXTT7=
EXTT8=
EXTT9=
EXTT10=
EXTT11=
PLAYORDER=
